<?xml version="1.0" encoding="UTF-8"?>
<svg width="310px" height="46px" viewBox="0 0 310 46" version="1.1" xmlns="http://www.w3.org/2000/svg" xmlns:xlink="http://www.w3.org/1999/xlink">
    <!-- Generator: Sketch 63.1 (92452) - https://sketch.com -->
    <title>Dolor Logo</title>
    <desc>Created with Sketch.</desc>
    <g id="Tests" stroke="none" stroke-width="1" fill="none" fill-rule="evenodd">
        <g id="Dolor-Label" transform="translate(-46.000000, -46.000000)" fill="#FFFFFF" fill-rule="nonzero">
            <path d="M46,91.2479564 L46,46.7520436 L67.4514037,46.7520436 C84.0142222,46.7520436 95.8343834,54.3978202 95.8343834,69 C95.8343834,83.2888283 84.0142222,91.2479564 67.4514037,91.2479564 L46,91.2479564 Z M67.2325118,55.9019074 L58.4038729,55.9019074 L58.4038729,82.0980926 L67.2325118,82.0980926 C76.7907903,82.0980926 83.2116186,77.2724796 83.2116186,69 C83.2116186,60.4141689 76.7907903,55.9019074 67.2325118,55.9019074 Z M137.14426,92 C121.602937,92 109.636848,82.5367847 109.636848,69 C109.636848,55.2752044 121.602937,46 137.14426,46 C152.612619,46 164.578708,55.2752044 164.578708,69 C164.578708,82.5367847 152.612619,92 137.14426,92 Z M137.14426,82.4741144 C146.264755,82.4741144 151.955944,76.520436 151.955944,69 C151.955944,61.5422343 146.264755,55.5258856 137.14426,55.5258856 C128.096729,55.5258856 122.259613,61.479564 122.259613,69 C122.259613,76.5831063 128.096729,82.4741144 137.14426,82.4741144 Z M223.837719,81.8474114 L223.837719,91.2479564 L208.55177,91.2479564 L200.908795,91.2479564 L180.861948,73.0735695 L180.861948,64.2997275 L180.861948,46.7520436 L193.26582,46.7520436 L193.26582,81.8474114 L223.837719,81.8474114 Z M261.645326,92 C246.104003,92 234.137913,82.5367847 234.137913,69 C234.137913,55.2752044 246.104003,46 261.645326,46 C277.113685,46 289.079774,55.2752044 289.079774,69 C289.079774,82.5367847 277.113685,92 261.645326,92 Z M261.645326,82.4741144 C270.76582,82.4741144 276.457009,76.520436 276.457009,69 C276.457009,61.5422343 270.76582,55.5258856 261.645326,55.5258856 C252.597795,55.5258856 246.760678,61.479564 246.760678,69 C246.760678,76.5831063 252.597795,82.4741144 261.645326,82.4741144 Z M305.363013,91.2479564 L305.363013,46.7520436 L335.71602,46.7520436 C347.171361,46.7520436 354.175901,51.4523161 354.175901,60.7275204 C354.175901,66.9945504 350.527703,71.1934605 344.325767,73.1362398 C348.140425,79.054403 351.001419,83.4930254 352.908749,86.452107 C353.595694,87.5178513 354.626111,89.1164678 356,91.2479564 L342.939451,91.2479564 L331.994858,74.3269755 L317.766886,74.3269755 L317.766886,91.2479564 L305.363013,91.2479564 Z M334.402668,55.9019074 L317.766886,55.9019074 L317.766886,65.3651226 L334.402668,65.3651226 C339.145326,65.3651226 341.480172,63.7983651 341.480172,60.7275204 C341.480172,57.280654 339.072362,55.9019074 334.402668,55.9019074 Z" id="Dolor-Logo"></path>
        </g>
    </g>
</svg>